<svg xmlns="http://www.w3.org/2000/svg" xmlns:xlink="http://www.w3.org/1999/xlink" width="500" zoomAndPan="magnify" viewBox="0 0 375 374.999991" height="500" preserveAspectRatio="xMidYMid meet" version="1.0"><defs><g/><clipPath id="bfb5eb2024"><path d="M 35 153 L 100 153 L 100 198 L 35 198 Z M 35 153 " clip-rule="nonzero"/></clipPath><clipPath id="b9258b685e"><path d="M -7.246094 162.445312 L 101.492188 108.25 L 135.953125 177.386719 L 27.210938 231.585938 Z M -7.246094 162.445312 " clip-rule="nonzero"/></clipPath><clipPath id="7b1cf1278c"><path d="M -7.246094 162.445312 L 101.492188 108.25 L 135.953125 177.386719 L 27.210938 231.585938 Z M -7.246094 162.445312 " clip-rule="nonzero"/></clipPath><clipPath id="683dd7b11d"><path d="M 5 133 L 115 133 L 115 189 L 5 189 Z M 5 133 " clip-rule="nonzero"/></clipPath><clipPath id="a6054c90f1"><path d="M -7.246094 162.445312 L 101.492188 108.25 L 135.953125 177.386719 L 27.210938 231.585938 Z M -7.246094 162.445312 " clip-rule="nonzero"/></clipPath><clipPath id="ff813e5c8c"><path d="M -7.246094 162.445312 L 101.492188 108.25 L 135.953125 177.386719 L 27.210938 231.585938 Z M -7.246094 162.445312 " clip-rule="nonzero"/></clipPath><clipPath id="3fd172b1ee"><path d="M 19 183 L 31 183 L 31 203 L 19 203 Z M 19 183 " clip-rule="nonzero"/></clipPath><clipPath id="28317507e6"><path d="M -7.246094 162.445312 L 101.492188 108.25 L 135.953125 177.386719 L 27.210938 231.585938 Z M -7.246094 162.445312 " clip-rule="nonzero"/></clipPath><clipPath id="51d4829eb0"><path d="M -7.246094 162.445312 L 101.492188 108.25 L 135.953125 177.386719 L 27.210938 231.585938 Z M -7.246094 162.445312 " clip-rule="nonzero"/></clipPath><clipPath id="6a0e839c87"><path d="M 29 203 L 45 203 L 45 224 L 29 224 Z M 29 203 " clip-rule="nonzero"/></clipPath><clipPath id="46c77068a5"><path d="M -7.246094 162.445312 L 101.492188 108.25 L 135.953125 177.386719 L 27.210938 231.585938 Z M -7.246094 162.445312 " clip-rule="nonzero"/></clipPath><clipPath id="39d21bc3c5"><path d="M -7.246094 162.445312 L 101.492188 108.25 L 135.953125 177.386719 L 27.210938 231.585938 Z M -7.246094 162.445312 " clip-rule="nonzero"/></clipPath><clipPath id="410eafff9e"><path d="M 30 210 L 38 210 L 38 224 L 30 224 Z M 30 210 " clip-rule="nonzero"/></clipPath><clipPath id="ef5055de1b"><path d="M -7.246094 162.445312 L 101.492188 108.25 L 135.953125 177.386719 L 27.210938 231.585938 Z M -7.246094 162.445312 " clip-rule="nonzero"/></clipPath><clipPath id="9d54049409"><path d="M -7.246094 162.445312 L 101.492188 108.25 L 135.953125 177.386719 L 27.210938 231.585938 Z M -7.246094 162.445312 " clip-rule="nonzero"/></clipPath><clipPath id="35fa844f2c"><path d="M 34 214 L 42 214 L 42 224 L 34 224 Z M 34 214 " clip-rule="nonzero"/></clipPath><clipPath id="f34a4b3cc6"><path d="M -7.246094 162.445312 L 101.492188 108.25 L 135.953125 177.386719 L 27.210938 231.585938 Z M -7.246094 162.445312 " clip-rule="nonzero"/></clipPath><clipPath id="7bf14be203"><path d="M -7.246094 162.445312 L 101.492188 108.25 L 135.953125 177.386719 L 27.210938 231.585938 Z M -7.246094 162.445312 " clip-rule="nonzero"/></clipPath><clipPath id="c136deef17"><path d="M 36 209 L 44 209 L 44 223 L 36 223 Z M 36 209 " clip-rule="nonzero"/></clipPath><clipPath id="5f13a6ec2a"><path d="M -7.246094 162.445312 L 101.492188 108.25 L 135.953125 177.386719 L 27.210938 231.585938 Z M -7.246094 162.445312 " clip-rule="nonzero"/></clipPath><clipPath id="fcb5550a60"><path d="M -7.246094 162.445312 L 101.492188 108.25 L 135.953125 177.386719 L 27.210938 231.585938 Z M -7.246094 162.445312 " clip-rule="nonzero"/></clipPath><clipPath id="e0b6d6221a"><path d="M 26 199 L 34 199 L 34 206 L 26 206 Z M 26 199 " clip-rule="nonzero"/></clipPath><clipPath id="452f658e9b"><path d="M -7.246094 162.445312 L 101.492188 108.25 L 135.953125 177.386719 L 27.210938 231.585938 Z M -7.246094 162.445312 " clip-rule="nonzero"/></clipPath><clipPath id="1e1c399291"><path d="M -7.246094 162.445312 L 101.492188 108.25 L 135.953125 177.386719 L 27.210938 231.585938 Z M -7.246094 162.445312 " clip-rule="nonzero"/></clipPath></defs><rect x="-37.5" width="450" fill="#ffffff" y="-37.499999" height="449.999989" fill-opacity="1"/><rect x="-37.5" width="450" fill="#000000" y="-37.499999" height="449.999989" fill-opacity="1"/><g clip-path="url(#bfb5eb2024)"><g clip-path="url(#b9258b685e)"><g clip-path="url(#7b1cf1278c)"><path fill="#ffffff" d="M 56.753906 184.328125 C 64.050781 179.710938 73.492188 175.75 82.007812 173.726562 C 86.964844 172.550781 95.203125 171.21875 99.324219 174.011719 C 99.199219 173.792969 99.046875 173.601562 98.859375 173.4375 C 97.53125 170.4375 96.09375 167.1875 94.617188 163.855469 C 94.613281 163.859375 94.609375 163.859375 94.605469 163.863281 C 93.433594 161.21875 92.242188 158.527344 91.058594 155.863281 C 89.285156 153.339844 82.855469 153.03125 74.21875 155.058594 C 65.75 157.046875 56.34375 160.941406 49.050781 165.480469 C 41.011719 170.484375 36.363281 175.707031 35.933594 180.210938 C 36.035156 180.5625 36.292969 181.40625 36.667969 182.1875 C 37.585938 184.089844 38.695312 186.40625 39.816406 188.761719 C 39.800781 188.765625 39.789062 188.765625 39.773438 188.769531 C 41.582031 192.574219 42.96875 195.550781 43.832031 197.476562 C 45.179688 193.976562 48.664062 189.449219 56.753906 184.328125 " fill-opacity="1" fill-rule="nonzero"/></g></g></g><g clip-path="url(#683dd7b11d)"><g clip-path="url(#a6054c90f1)"><g clip-path="url(#ff813e5c8c)"><path fill="#ffffff" d="M 113.378906 133.496094 L 46.699219 135.679688 C 46.441406 135.6875 46.203125 135.808594 46.039062 136.007812 L 5.328125 186.390625 C 5.089844 186.683594 5.050781 187.101562 5.222656 187.460938 C 5.398438 187.816406 5.75 188.046875 6.128906 188.042969 L 37.109375 187.746094 C 36.359375 186.171875 35.550781 184.484375 34.691406 182.691406 C 34.097656 181.464844 33.765625 180.171875 33.753906 180.117188 L 33.707031 179.941406 L 33.71875 179.765625 C 33.980469 176.078125 36.625 170.226562 47.765625 163.292969 C 55.21875 158.65625 64.839844 154.671875 73.496094 152.640625 C 79.285156 151.28125 89.460938 149.707031 92.578125 154.445312 L 92.628906 154.523438 L 92.667969 154.609375 C 93.566406 156.628906 94.464844 158.660156 95.359375 160.679688 L 114.226562 135.113281 C 114.449219 134.816406 114.472656 134.398438 114.289062 134.046875 C 114.109375 133.699219 113.753906 133.484375 113.378906 133.496094 " fill-opacity="1" fill-rule="nonzero"/></g></g></g><g clip-path="url(#3fd172b1ee)"><g clip-path="url(#28317507e6)"><g clip-path="url(#51d4829eb0)"><path fill="#ff9a12" d="M 30.277344 201.988281 L 28.585938 202.792969 L 19.550781 183.808594 L 21.242188 183.003906 L 30.277344 201.988281 " fill-opacity="1" fill-rule="nonzero"/></g></g></g><g clip-path="url(#6a0e839c87)"><g clip-path="url(#46c77068a5)"><g clip-path="url(#39d21bc3c5)"><path fill="#ffb608" d="M 29.351562 205.3125 C 28.359375 210.875 30.105469 216.933594 33.953125 223.382812 C 40.046875 224.859375 43.21875 223.121094 44.152344 218.917969 C 37.761719 205.984375 32.664062 200.519531 29.351562 205.3125 " fill-opacity="1" fill-rule="evenodd"/></g></g></g><g clip-path="url(#410eafff9e)"><g clip-path="url(#ef5055de1b)"><g clip-path="url(#9d54049409)"><path fill="#e4a91d" d="M 37.707031 223.902344 L 30.789062 210.902344 L 35.605469 223.71875 C 36.359375 223.832031 37.054688 223.898438 37.707031 223.902344 " fill-opacity="1" fill-rule="evenodd"/></g></g></g><g clip-path="url(#35fa844f2c)"><g clip-path="url(#f34a4b3cc6)"><g clip-path="url(#7bf14be203)"><path fill="#e4a91d" d="M 36.347656 215.53125 L 39.171875 221.109375 L 34.699219 214.210938 L 39.828125 223.289062 C 40.4375 223.179688 40.984375 223.019531 41.480469 222.816406 L 41.523438 222.785156 L 36.347656 215.53125 " fill-opacity="1" fill-rule="evenodd"/></g></g></g><g clip-path="url(#c136deef17)"><g clip-path="url(#5f13a6ec2a)"><g clip-path="url(#fcb5550a60)"><path fill="#e4a91d" d="M 36.082031 209.652344 L 42.5 222.21875 C 42.765625 221.945312 43.007812 221.640625 43.21875 221.304688 L 40.480469 215.046875 L 39.445312 215.046875 L 36.082031 209.652344 " fill-opacity="1" fill-rule="evenodd"/></g></g></g><g clip-path="url(#e0b6d6221a)"><g clip-path="url(#452f658e9b)"><g clip-path="url(#1e1c399291)"><path fill="#e4a91d" d="M 28.679688 199.367188 C 30.457031 198.582031 32.496094 199.320312 33.234375 201.007812 C 33.976562 202.691406 33.128906 204.691406 31.351562 205.472656 C 29.566406 206.25 27.523438 205.519531 26.785156 203.828125 C 26.046875 202.140625 26.890625 200.148438 28.679688 199.367188 " fill-opacity="1" fill-rule="evenodd"/></g></g></g><g fill="#ffffff" fill-opacity="1"><g transform="translate(60.067732, 237.544422)"><g><path d="M 9.46875 -2.359375 L 4.5 -2.359375 L 3.703125 0 L 0.296875 0 L 5.125 -13.328125 L 8.890625 -13.328125 L 13.703125 0 L 10.265625 0 Z M 8.640625 -4.859375 L 6.984375 -9.734375 L 5.359375 -4.859375 Z M 8.640625 -4.859375 "/></g></g></g><g fill="#ffffff" fill-opacity="1"><g transform="translate(77.088726, 237.544422)"><g><path d="M 13.09375 0 L 9.859375 0 L 4.421875 -8.21875 L 4.421875 0 L 1.171875 0 L 1.171875 -13.328125 L 4.421875 -13.328125 L 9.859375 -5.0625 L 9.859375 -13.328125 L 13.09375 -13.328125 Z M 13.09375 0 "/></g></g></g><g fill="#ffffff" fill-opacity="1"><g transform="translate(94.394312, 237.544422)"><g/></g></g><g fill="#ffffff" fill-opacity="1"><g transform="translate(101.454644, 237.544422)"><g><path d="M 9.46875 -2.359375 L 4.5 -2.359375 L 3.703125 0 L 0.296875 0 L 5.125 -13.328125 L 8.890625 -13.328125 L 13.703125 0 L 10.265625 0 Z M 8.640625 -4.859375 L 6.984375 -9.734375 L 5.359375 -4.859375 Z M 8.640625 -4.859375 "/></g></g></g><g fill="#ffffff" fill-opacity="1"><g transform="translate(118.475637, 237.544422)"><g><path d="M 4.421875 -13.328125 L 4.421875 0 L 1.171875 0 L 1.171875 -13.328125 Z M 4.421875 -13.328125 "/></g></g></g><g fill="#ffffff" fill-opacity="1"><g transform="translate(127.110713, 237.544422)"><g/></g></g><g fill="#ffffff" fill-opacity="1"><g transform="translate(134.171048, 237.544422)"><g><path d="M 11.328125 -9.03125 C 11.328125 -8.257812 11.148438 -7.554688 10.796875 -6.921875 C 10.441406 -6.285156 9.894531 -5.769531 9.15625 -5.375 C 8.425781 -4.976562 7.519531 -4.78125 6.4375 -4.78125 L 4.421875 -4.78125 L 4.421875 0 L 1.171875 0 L 1.171875 -13.328125 L 6.4375 -13.328125 C 7.5 -13.328125 8.394531 -13.140625 9.125 -12.765625 C 9.863281 -12.398438 10.414062 -11.894531 10.78125 -11.25 C 11.144531 -10.613281 11.328125 -9.875 11.328125 -9.03125 Z M 6.1875 -7.359375 C 6.8125 -7.359375 7.273438 -7.503906 7.578125 -7.796875 C 7.878906 -8.085938 8.03125 -8.5 8.03125 -9.03125 C 8.03125 -9.5625 7.878906 -9.972656 7.578125 -10.265625 C 7.273438 -10.554688 6.8125 -10.703125 6.1875 -10.703125 L 4.421875 -10.703125 L 4.421875 -7.359375 Z M 6.1875 -7.359375 "/></g></g></g><g fill="#ffffff" fill-opacity="1"><g transform="translate(149.048126, 237.544422)"><g><path d="M 7.484375 0.140625 C 6.222656 0.140625 5.070312 -0.148438 4.03125 -0.734375 C 2.988281 -1.316406 2.160156 -2.128906 1.546875 -3.171875 C 0.929688 -4.222656 0.625 -5.398438 0.625 -6.703125 C 0.625 -8.003906 0.929688 -9.171875 1.546875 -10.203125 C 2.160156 -11.242188 2.988281 -12.054688 4.03125 -12.640625 C 5.070312 -13.222656 6.222656 -13.515625 7.484375 -13.515625 C 8.734375 -13.515625 9.878906 -13.222656 10.921875 -12.640625 C 11.960938 -12.054688 12.785156 -11.242188 13.390625 -10.203125 C 13.992188 -9.171875 14.296875 -8.003906 14.296875 -6.703125 C 14.296875 -5.398438 13.988281 -4.222656 13.375 -3.171875 C 12.769531 -2.128906 11.945312 -1.316406 10.90625 -0.734375 C 9.875 -0.148438 8.734375 0.140625 7.484375 0.140625 Z M 7.484375 -2.828125 C 8.546875 -2.828125 9.394531 -3.179688 10.03125 -3.890625 C 10.664062 -4.597656 10.984375 -5.535156 10.984375 -6.703125 C 10.984375 -7.878906 10.664062 -8.816406 10.03125 -9.515625 C 9.394531 -10.222656 8.546875 -10.578125 7.484375 -10.578125 C 6.398438 -10.578125 5.539062 -10.226562 4.90625 -9.53125 C 4.269531 -8.832031 3.953125 -7.890625 3.953125 -6.703125 C 3.953125 -5.523438 4.269531 -4.582031 4.90625 -3.875 C 5.539062 -3.175781 6.398438 -2.828125 7.484375 -2.828125 Z M 7.484375 -2.828125 "/></g></g></g><g fill="#ffffff" fill-opacity="1"><g transform="translate(166.998778, 237.544422)"><g><path d="M 19.515625 -13.328125 L 16.046875 0 L 12.109375 0 L 9.984375 -8.765625 L 7.78125 0 L 3.859375 0 L 0.46875 -13.328125 L 3.953125 -13.328125 L 5.859375 -3.625 L 8.234375 -13.328125 L 11.8125 -13.328125 L 14.09375 -3.625 L 16.015625 -13.328125 Z M 19.515625 -13.328125 "/></g></g></g><g fill="#ffffff" fill-opacity="1"><g transform="translate(189.996171, 237.544422)"><g><path d="M 4.421875 -10.71875 L 4.421875 -8.03125 L 8.765625 -8.03125 L 8.765625 -5.53125 L 4.421875 -5.53125 L 4.421875 -2.59375 L 9.34375 -2.59375 L 9.34375 0 L 1.171875 0 L 1.171875 -13.328125 L 9.34375 -13.328125 L 9.34375 -10.71875 Z M 4.421875 -10.71875 "/></g></g></g><g fill="#ffffff" fill-opacity="1"><g transform="translate(203.298519, 237.544422)"><g><path d="M 7.96875 0 L 5.203125 -5.03125 L 4.421875 -5.03125 L 4.421875 0 L 1.171875 0 L 1.171875 -13.328125 L 6.625 -13.328125 C 7.675781 -13.328125 8.570312 -13.140625 9.3125 -12.765625 C 10.050781 -12.398438 10.601562 -11.898438 10.96875 -11.265625 C 11.34375 -10.628906 11.53125 -9.914062 11.53125 -9.125 C 11.53125 -8.238281 11.28125 -7.445312 10.78125 -6.75 C 10.28125 -6.0625 9.539062 -5.570312 8.5625 -5.28125 L 11.640625 0 Z M 4.421875 -7.328125 L 6.4375 -7.328125 C 7.03125 -7.328125 7.472656 -7.472656 7.765625 -7.765625 C 8.066406 -8.054688 8.21875 -8.46875 8.21875 -9 C 8.21875 -9.507812 8.066406 -9.90625 7.765625 -10.1875 C 7.472656 -10.476562 7.03125 -10.625 6.4375 -10.625 L 4.421875 -10.625 Z M 4.421875 -7.328125 "/></g></g></g><g fill="#ffffff" fill-opacity="1"><g transform="translate(218.706831, 237.544422)"><g><path d="M 4.421875 -10.71875 L 4.421875 -8.03125 L 8.765625 -8.03125 L 8.765625 -5.53125 L 4.421875 -5.53125 L 4.421875 -2.59375 L 9.34375 -2.59375 L 9.34375 0 L 1.171875 0 L 1.171875 -13.328125 L 9.34375 -13.328125 L 9.34375 -10.71875 Z M 4.421875 -10.71875 "/></g></g></g><g fill="#ffffff" fill-opacity="1"><g transform="translate(232.009179, 237.544422)"><g><path d="M 6.171875 -13.328125 C 7.578125 -13.328125 8.800781 -13.046875 9.84375 -12.484375 C 10.894531 -11.929688 11.707031 -11.148438 12.28125 -10.140625 C 12.863281 -9.140625 13.15625 -7.976562 13.15625 -6.65625 C 13.15625 -5.351562 12.863281 -4.195312 12.28125 -3.1875 C 11.707031 -2.175781 10.894531 -1.390625 9.84375 -0.828125 C 8.789062 -0.273438 7.566406 0 6.171875 0 L 1.171875 0 L 1.171875 -13.328125 Z M 5.96875 -2.8125 C 7.1875 -2.8125 8.140625 -3.144531 8.828125 -3.8125 C 9.515625 -4.488281 9.859375 -5.4375 9.859375 -6.65625 C 9.859375 -7.882812 9.515625 -8.84375 8.828125 -9.53125 C 8.140625 -10.21875 7.1875 -10.5625 5.96875 -10.5625 L 4.421875 -10.5625 L 4.421875 -2.8125 Z M 5.96875 -2.8125 "/></g></g></g><g fill="#ffffff" fill-opacity="1"><g transform="translate(248.84045, 237.544422)"><g/></g></g><g fill="#ffffff" fill-opacity="1"><g transform="translate(255.900779, 237.544422)"><g><path d="M 4.421875 -10.71875 L 4.421875 -8.03125 L 8.765625 -8.03125 L 8.765625 -5.53125 L 4.421875 -5.53125 L 4.421875 -2.59375 L 9.34375 -2.59375 L 9.34375 0 L 1.171875 0 L 1.171875 -13.328125 L 9.34375 -13.328125 L 9.34375 -10.71875 Z M 4.421875 -10.71875 "/></g></g></g><g fill="#ffffff" fill-opacity="1"><g transform="translate(269.203139, 237.544422)"><g><path d="M 6.171875 -13.328125 C 7.578125 -13.328125 8.800781 -13.046875 9.84375 -12.484375 C 10.894531 -11.929688 11.707031 -11.148438 12.28125 -10.140625 C 12.863281 -9.140625 13.15625 -7.976562 13.15625 -6.65625 C 13.15625 -5.351562 12.863281 -4.195312 12.28125 -3.1875 C 11.707031 -2.175781 10.894531 -1.390625 9.84375 -0.828125 C 8.789062 -0.273438 7.566406 0 6.171875 0 L 1.171875 0 L 1.171875 -13.328125 Z M 5.96875 -2.8125 C 7.1875 -2.8125 8.140625 -3.144531 8.828125 -3.8125 C 9.515625 -4.488281 9.859375 -5.4375 9.859375 -6.65625 C 9.859375 -7.882812 9.515625 -8.84375 8.828125 -9.53125 C 8.140625 -10.21875 7.1875 -10.5625 5.96875 -10.5625 L 4.421875 -10.5625 L 4.421875 -2.8125 Z M 5.96875 -2.8125 "/></g></g></g><g fill="#ffffff" fill-opacity="1"><g transform="translate(286.034421, 237.544422)"><g><path d="M 10.765625 -13.328125 L 10.765625 -10.71875 L 7.234375 -10.71875 L 7.234375 0 L 3.984375 0 L 3.984375 -10.71875 L 0.453125 -10.71875 L 0.453125 -13.328125 Z M 10.765625 -13.328125 "/></g></g></g><g fill="#ffffff" fill-opacity="1"><g transform="translate(300.285404, 237.544422)"><g><path d="M 4.421875 -10.71875 L 4.421875 -8.03125 L 8.765625 -8.03125 L 8.765625 -5.53125 L 4.421875 -5.53125 L 4.421875 -2.59375 L 9.34375 -2.59375 L 9.34375 0 L 1.171875 0 L 1.171875 -13.328125 L 9.34375 -13.328125 L 9.34375 -10.71875 Z M 4.421875 -10.71875 "/></g></g></g><g fill="#ffffff" fill-opacity="1"><g transform="translate(313.587764, 237.544422)"><g><path d="M 0.625 -6.6875 C 0.625 -8 0.90625 -9.171875 1.46875 -10.203125 C 2.039062 -11.234375 2.835938 -12.035156 3.859375 -12.609375 C 4.878906 -13.191406 6.035156 -13.484375 7.328125 -13.484375 C 8.910156 -13.484375 10.265625 -13.0625 11.390625 -12.21875 C 12.515625 -11.382812 13.269531 -10.25 13.65625 -8.8125 L 10.078125 -8.8125 C 9.816406 -9.363281 9.441406 -9.785156 8.953125 -10.078125 C 8.460938 -10.367188 7.910156 -10.515625 7.296875 -10.515625 C 6.296875 -10.515625 5.484375 -10.164062 4.859375 -9.46875 C 4.242188 -8.769531 3.9375 -7.84375 3.9375 -6.6875 C 3.9375 -5.519531 4.242188 -4.585938 4.859375 -3.890625 C 5.484375 -3.191406 6.296875 -2.84375 7.296875 -2.84375 C 7.910156 -2.84375 8.460938 -2.988281 8.953125 -3.28125 C 9.441406 -3.570312 9.816406 -4 10.078125 -4.5625 L 13.65625 -4.5625 C 13.269531 -3.113281 12.515625 -1.972656 11.390625 -1.140625 C 10.265625 -0.316406 8.910156 0.09375 7.328125 0.09375 C 6.035156 0.09375 4.878906 -0.191406 3.859375 -0.765625 C 2.835938 -1.335938 2.039062 -2.132812 1.46875 -3.15625 C 0.90625 -4.1875 0.625 -5.363281 0.625 -6.6875 Z M 0.625 -6.6875 "/></g></g></g><g fill="#ffffff" fill-opacity="1"><g transform="translate(331.083078, 237.544422)"><g><path d="M 12.71875 -13.328125 L 12.71875 0 L 9.46875 0 L 9.46875 -5.484375 L 4.421875 -5.484375 L 4.421875 0 L 1.171875 0 L 1.171875 -13.328125 L 4.421875 -13.328125 L 4.421875 -8.109375 L 9.46875 -8.109375 L 9.46875 -13.328125 Z M 12.71875 -13.328125 "/></g></g></g><g fill="#ffffff" fill-opacity="1"><g transform="translate(54.013518, 211.709928)"><g><path d="M 14.5625 -48.453125 L 14.5625 -9.6875 L 31.25 -9.6875 L 31.25 0 L 3.53125 0 L 3.53125 -48.453125 Z M 14.5625 -48.453125 "/></g></g></g><g fill="#ffffff" fill-opacity="1"><g transform="translate(87.191826, 211.709928)"><g><path d="M 34 -13.625 L 12.15625 -13.625 C 12.15625 -11.507812 12.835938 -9.941406 14.203125 -8.921875 C 15.578125 -7.910156 17.066406 -7.40625 18.671875 -7.40625 C 20.359375 -7.40625 21.691406 -7.628906 22.671875 -8.078125 C 23.648438 -8.523438 24.765625 -9.414062 26.015625 -10.75 L 33.53125 -6.984375 C 30.40625 -1.742188 25.195312 0.875 17.90625 0.875 C 13.363281 0.875 9.46875 -0.675781 6.21875 -3.78125 C 2.96875 -6.894531 1.34375 -10.644531 1.34375 -15.03125 C 1.34375 -19.414062 2.96875 -23.175781 6.21875 -26.3125 C 9.46875 -29.445312 13.363281 -31.015625 17.90625 -31.015625 C 22.6875 -31.015625 26.570312 -29.632812 29.5625 -26.875 C 32.5625 -24.113281 34.0625 -20.164062 34.0625 -15.03125 C 34.0625 -14.332031 34.039062 -13.863281 34 -13.625 Z M 12.453125 -19.375 L 23.90625 -19.375 C 23.664062 -20.945312 23.046875 -22.148438 22.046875 -22.984375 C 21.054688 -23.828125 19.773438 -24.25 18.203125 -24.25 C 16.484375 -24.25 15.113281 -23.800781 14.09375 -22.90625 C 13.070312 -22.007812 12.523438 -20.832031 12.453125 -19.375 Z M 12.453125 -19.375 "/></g></g></g><g fill="#ffffff" fill-opacity="1"><g transform="translate(122.601594, 211.709928)"><g><path d="M 5.578125 -3.734375 C 2.753906 -6.804688 1.34375 -10.570312 1.34375 -15.03125 C 1.34375 -19.5 2.753906 -23.28125 5.578125 -26.375 C 8.398438 -29.46875 11.984375 -31.015625 16.328125 -31.015625 C 20.316406 -31.015625 23.609375 -29.757812 26.203125 -27.25 L 26.203125 -30.125 L 36.59375 -30.125 L 36.59375 0 L 26.3125 0 L 26.3125 -3.40625 L 26.203125 -3.40625 C 23.609375 -0.550781 20.316406 0.875 16.328125 0.875 C 11.984375 0.875 8.398438 -0.660156 5.578125 -3.734375 Z M 14.421875 -20.140625 C 13.066406 -18.816406 12.390625 -17.113281 12.390625 -15.03125 C 12.390625 -12.957031 13.035156 -11.265625 14.328125 -9.953125 C 15.617188 -8.640625 17.320312 -7.984375 19.4375 -7.984375 C 21.476562 -7.984375 23.15625 -8.648438 24.46875 -9.984375 C 25.78125 -11.316406 26.4375 -13 26.4375 -15.03125 C 26.4375 -17.113281 25.757812 -18.816406 24.40625 -20.140625 C 23.050781 -21.472656 21.394531 -22.140625 19.4375 -22.140625 C 17.445312 -22.140625 15.773438 -21.472656 14.421875 -20.140625 Z M 14.421875 -20.140625 "/></g></g></g><g fill="#ffffff" fill-opacity="1"><g transform="translate(162.709174, 211.709928)"><g><path d="M 5.578125 -3.734375 C 2.753906 -6.804688 1.34375 -10.570312 1.34375 -15.03125 C 1.34375 -19.5 2.753906 -23.28125 5.578125 -26.375 C 8.398438 -29.46875 11.984375 -31.015625 16.328125 -31.015625 C 20.316406 -31.015625 23.609375 -29.757812 26.203125 -27.25 L 26.203125 -50.515625 L 36.59375 -50.515625 L 36.59375 0 L 26.3125 0 L 26.3125 -3.40625 L 26.203125 -3.40625 C 23.609375 -0.550781 20.316406 0.875 16.328125 0.875 C 11.984375 0.875 8.398438 -0.660156 5.578125 -3.734375 Z M 14.421875 -20.140625 C 13.066406 -18.816406 12.390625 -17.113281 12.390625 -15.03125 C 12.390625 -12.957031 13.035156 -11.265625 14.328125 -9.953125 C 15.617188 -8.640625 17.320312 -7.984375 19.4375 -7.984375 C 21.476562 -7.984375 23.15625 -8.648438 24.46875 -9.984375 C 25.78125 -11.316406 26.4375 -13 26.4375 -15.03125 C 26.4375 -17.113281 25.757812 -18.816406 24.40625 -20.140625 C 23.050781 -21.472656 21.394531 -22.140625 19.4375 -22.140625 C 17.445312 -22.140625 15.773438 -21.472656 14.421875 -20.140625 Z M 14.421875 -20.140625 "/></g></g></g><g fill="#ffffff" fill-opacity="1"><g transform="translate(202.816753, 211.709928)"><g><path d="M 16.625 -31.015625 C 18.34375 -31.015625 20.039062 -30.816406 21.71875 -30.421875 C 23.40625 -30.035156 24.660156 -29.644531 25.484375 -29.25 L 26.71875 -28.65625 L 23.3125 -21.84375 C 20.96875 -23.101562 18.738281 -23.734375 16.625 -23.734375 C 15.445312 -23.734375 14.613281 -23.601562 14.125 -23.34375 C 13.632812 -23.09375 13.390625 -22.613281 13.390625 -21.90625 C 13.390625 -21.75 13.410156 -21.59375 13.453125 -21.4375 C 13.492188 -21.28125 13.570312 -21.132812 13.6875 -21 C 13.800781 -20.863281 13.90625 -20.742188 14 -20.640625 C 14.101562 -20.546875 14.269531 -20.4375 14.5 -20.3125 C 14.738281 -20.195312 14.925781 -20.109375 15.0625 -20.046875 C 15.195312 -19.992188 15.421875 -19.910156 15.734375 -19.796875 C 16.046875 -19.679688 16.28125 -19.59375 16.4375 -19.53125 C 16.601562 -19.46875 16.867188 -19.378906 17.234375 -19.265625 C 17.609375 -19.148438 17.894531 -19.070312 18.09375 -19.03125 C 19.300781 -18.675781 20.351562 -18.28125 21.25 -17.84375 C 22.15625 -17.414062 23.109375 -16.832031 24.109375 -16.09375 C 25.109375 -15.351562 25.878906 -14.414062 26.421875 -13.28125 C 26.972656 -12.144531 27.25 -10.847656 27.25 -9.390625 C 27.25 -2.546875 22.492188 0.875 12.984375 0.875 C 10.828125 0.875 8.78125 0.546875 6.84375 -0.109375 C 4.90625 -0.773438 3.503906 -1.441406 2.640625 -2.109375 L 1.34375 -3.171875 L 5.578125 -10.28125 C 5.890625 -10.007812 6.300781 -9.6875 6.8125 -9.3125 C 7.320312 -8.9375 8.242188 -8.425781 9.578125 -7.78125 C 10.910156 -7.132812 12.0625 -6.8125 13.03125 -6.8125 C 15.1875 -6.8125 16.265625 -7.535156 16.265625 -8.984375 C 16.265625 -9.648438 15.988281 -10.164062 15.4375 -10.53125 C 14.894531 -10.90625 13.96875 -11.328125 12.65625 -11.796875 C 11.34375 -12.273438 10.316406 -12.707031 9.578125 -13.09375 C 7.691406 -14.070312 6.203125 -15.175781 5.109375 -16.40625 C 4.015625 -17.644531 3.46875 -19.285156 3.46875 -21.328125 C 3.46875 -24.378906 4.648438 -26.753906 7.015625 -28.453125 C 9.390625 -30.160156 12.59375 -31.015625 16.625 -31.015625 Z M 16.625 -31.015625 "/></g></g></g><g fill="#ffffff" fill-opacity="1"><g transform="translate(231.708311, 211.709928)"><g><path d="M 19.5625 -22.5 C 17.601562 -22.5 15.914062 -21.773438 14.5 -20.328125 C 13.09375 -18.878906 12.390625 -17.132812 12.390625 -15.09375 C 12.390625 -13.019531 13.09375 -11.257812 14.5 -9.8125 C 15.914062 -8.363281 17.601562 -7.640625 19.5625 -7.640625 C 20.5 -7.640625 21.390625 -7.753906 22.234375 -7.984375 C 23.078125 -8.222656 23.691406 -8.457031 24.078125 -8.6875 L 24.609375 -9.046875 L 28.140625 -1.828125 C 27.859375 -1.628906 27.472656 -1.378906 26.984375 -1.078125 C 26.492188 -0.785156 25.378906 -0.390625 23.640625 0.109375 C 21.898438 0.617188 20.03125 0.875 18.03125 0.875 C 13.601562 0.875 9.710938 -0.675781 6.359375 -3.78125 C 3.015625 -6.894531 1.34375 -10.628906 1.34375 -14.984375 C 1.34375 -19.367188 3.015625 -23.132812 6.359375 -26.28125 C 9.710938 -29.4375 13.601562 -31.015625 18.03125 -31.015625 C 20.03125 -31.015625 21.867188 -30.78125 23.546875 -30.3125 C 25.234375 -29.84375 26.429688 -29.367188 27.140625 -28.890625 L 28.140625 -28.1875 L 24.609375 -21.078125 C 23.316406 -22.023438 21.632812 -22.5 19.5625 -22.5 Z M 19.5625 -22.5 "/></g></g></g><g fill="#ffffff" fill-opacity="1"><g transform="translate(260.541137, 211.709928)"><g><path d="M 5.578125 -3.734375 C 2.753906 -6.804688 1.34375 -10.570312 1.34375 -15.03125 C 1.34375 -19.5 2.753906 -23.28125 5.578125 -26.375 C 8.398438 -29.46875 11.984375 -31.015625 16.328125 -31.015625 C 20.316406 -31.015625 23.609375 -29.757812 26.203125 -27.25 L 26.203125 -30.125 L 36.59375 -30.125 L 36.59375 0 L 26.3125 0 L 26.3125 -3.40625 L 26.203125 -3.40625 C 23.609375 -0.550781 20.316406 0.875 16.328125 0.875 C 11.984375 0.875 8.398438 -0.660156 5.578125 -3.734375 Z M 14.421875 -20.140625 C 13.066406 -18.816406 12.390625 -17.113281 12.390625 -15.03125 C 12.390625 -12.957031 13.035156 -11.265625 14.328125 -9.953125 C 15.617188 -8.640625 17.320312 -7.984375 19.4375 -7.984375 C 21.476562 -7.984375 23.15625 -8.648438 24.46875 -9.984375 C 25.78125 -11.316406 26.4375 -13 26.4375 -15.03125 C 26.4375 -17.113281 25.757812 -18.816406 24.40625 -20.140625 C 23.050781 -21.472656 21.394531 -22.140625 19.4375 -22.140625 C 17.445312 -22.140625 15.773438 -21.472656 14.421875 -20.140625 Z M 14.421875 -20.140625 "/></g></g></g><g fill="#ffffff" fill-opacity="1"><g transform="translate(300.648716, 211.709928)"><g><path d="M 3.53125 0 L 3.53125 -50.515625 L 13.921875 -50.515625 L 13.921875 0 Z M 3.53125 0 "/></g></g></g><g fill="#ffffff" fill-opacity="1"><g transform="translate(318.089351, 211.709928)"><g><path d="M 34 -13.625 L 12.15625 -13.625 C 12.15625 -11.507812 12.835938 -9.941406 14.203125 -8.921875 C 15.578125 -7.910156 17.066406 -7.40625 18.671875 -7.40625 C 20.359375 -7.40625 21.691406 -7.628906 22.671875 -8.078125 C 23.648438 -8.523438 24.765625 -9.414062 26.015625 -10.75 L 33.53125 -6.984375 C 30.40625 -1.742188 25.195312 0.875 17.90625 0.875 C 13.363281 0.875 9.46875 -0.675781 6.21875 -3.78125 C 2.96875 -6.894531 1.34375 -10.644531 1.34375 -15.03125 C 1.34375 -19.414062 2.96875 -23.175781 6.21875 -26.3125 C 9.46875 -29.445312 13.363281 -31.015625 17.90625 -31.015625 C 22.6875 -31.015625 26.570312 -29.632812 29.5625 -26.875 C 32.5625 -24.113281 34.0625 -20.164062 34.0625 -15.03125 C 34.0625 -14.332031 34.039062 -13.863281 34 -13.625 Z M 12.453125 -19.375 L 23.90625 -19.375 C 23.664062 -20.945312 23.046875 -22.148438 22.046875 -22.984375 C 21.054688 -23.828125 19.773438 -24.25 18.203125 -24.25 C 16.484375 -24.25 15.113281 -23.800781 14.09375 -22.90625 C 13.070312 -22.007812 12.523438 -20.832031 12.453125 -19.375 Z M 12.453125 -19.375 "/></g></g></g></svg>